<svg width="25" height="25" viewBox="0 0 25 25" fill="none" xmlns="http://www.w3.org/2000/svg">
<path d="M0 22.5394H14.2067V24.5689H0V22.5394Z" fill="#FD7E14"/>
<path d="M12.1772 20.4934C12.1772 20.2242 12.0702 19.9661 11.8799 19.7758C11.6896 19.5855 11.4315 19.4786 11.1624 19.4786H3.04429C2.77516 19.4786 2.51705 19.5855 2.32674 19.7758C2.13644 19.9661 2.02953 20.2242 2.02953 20.4934V21.5246H12.1772V20.4934Z" fill="#FD7E14"/>
<path d="M13.8074 12.1967C13.3346 12.7006 12.9381 13.271 12.6305 13.8898L20.983 22.2423C21.1733 22.4326 21.4314 22.5394 21.7005 22.5394C21.9695 22.5394 22.2276 22.4326 22.4179 22.2423L23.853 20.8072C23.9473 20.713 24.022 20.6011 24.073 20.478C24.124 20.3548 24.1503 20.2229 24.1503 20.0896C24.1503 19.9564 24.124 19.8244 24.073 19.7013C24.022 19.5782 23.9473 19.4663 23.853 19.3721L15.5005 11.0218C14.8806 11.3267 14.3099 11.7227 13.8074 12.1967Z" fill="#FD7E14"/>
<path d="M8.78456 7.17384C8.01717 7.88599 7.12886 8.45549 6.16139 8.85555L11.4062 14.1004C11.8099 13.1346 12.3799 12.2471 13.0905 11.4785C13.8579 10.7663 14.7462 10.1968 15.7136 9.79649L10.4686 4.5527C10.0648 5.51814 9.4948 6.40529 8.78456 7.17384Z" fill="#FD7E14"/>
<path d="M12.3706 0.717438L10.9357 2.15231C10.5395 2.54854 10.5395 3.19096 10.9357 3.58719L16.6752 9.32669C17.0715 9.72292 17.7139 9.72292 18.1101 9.32669L19.545 7.89182C19.9412 7.49559 19.9412 6.85317 19.545 6.45694L13.8055 0.717438C13.4093 0.321208 12.7668 0.321208 12.3706 0.717438Z" fill="#FD7E14"/>
<path d="M3.76007 9.32632L2.3252 10.7612C1.92897 11.1574 1.92897 11.7998 2.3252 12.1961L8.0647 17.9356C8.46093 18.3318 9.10334 18.3318 9.49957 17.9356L10.9344 16.5007C11.3307 16.1045 11.3307 15.4621 10.9344 15.0658L5.19495 9.32633C4.79872 8.9301 4.1563 8.93009 3.76007 9.32632Z" fill="#FD7E14"/>
</svg>
