<svg width="30" height="30" viewBox="0 0 30 30" fill="none" xmlns="http://www.w3.org/2000/svg">
<path d="M15 0C6.71625 0 0 6.71625 0 15C0 23.2838 6.71625 30 15 30C23.2838 30 30 23.2838 30 15C30 6.71625 23.2838 0 15 0ZM22.5 23.4375C13.7119 23.4375 6.5625 16.2881 6.5625 7.5C6.5625 6.9825 6.9825 6.5625 7.5 6.5625H10.9613C11.4788 6.5625 11.8988 6.9825 11.8988 7.5C11.8988 9.12 12.2513 10.6631 12.9469 12.0844C13.0575 12.3094 13.0725 12.5662 12.99 12.8025C12.9094 13.0387 12.7369 13.2319 12.5119 13.3406L11.1131 14.0156C12.2775 16.0425 13.9575 17.7244 15.9825 18.885L16.6575 17.4881C16.7663 17.2631 16.9594 17.0925 17.1956 17.01C17.4319 16.9294 17.6906 16.9444 17.9137 17.0531C19.3387 17.7488 20.88 18.1012 22.4981 18.1012C23.0156 18.1012 23.4356 18.5212 23.4356 19.0387V22.5H23.4375C23.4375 23.0175 23.0175 23.4375 22.5 23.4375Z" fill="#138F20"/>
</svg>
